<?xml version="1.0" encoding="UTF-8"?>
<svg id="Layer_2" data-name="Layer 2" xmlns="http://www.w3.org/2000/svg" viewBox="0 0 752.86 362.71">
  <defs>
    <style>
      .cls-1 {
        fill: #94b6b5;
      }

      .cls-2 {
        fill: #588380;
      }

      .cls-3 {
        fill: #81aaa8;
      }

      .cls-4 {
        fill: #a3c1bf;
      }

      .cls-5 {
        fill: #699597;
      }
    </style>
  </defs>
  <g id="OBJECTS">
    <g>
      <path class="cls-1" d="M752.86,76.04c-3.22-1.72-6.59-3.27-9.84-4.89-3.18-1.59-7.54-2.41-11-3.08-5.01-.96-10.02-1.64-15.05-2.46-9.16-1.5-15.94-8.51-24.36-11.75-4.66-1.79-9.17-4.21-13.53-6.01-.82,1.3-1.85,.47-3.06,.71-.69,.14-1.23,.71-1.92,.97-3.73,1.39-7.98,2.34-11.84,3.44-4.04,1.15-7.91,2.83-11.91,4.13-4.54,1.47-8.37,3.99-12.79,5.45-2.95,.98-5.6,3.23-8.55,4.43-1.95,.79-3.86,1.74-5.71,2.73-3.77,2.02-7.4,3.96-11.39,5.5-5.08,1.96-10.92,3.78-16.51,2.82-3.2-.55-6.34-3.08-9.25-4.45-2.99-1.41-6.16-2.56-9.1-4.08-2.8-1.45-5.34-3.27-8.31-4.38-2.76-1.03-3.89-.83-6.6,0-3.31,1.02-6.68,2.16-9.86,3.64-2.44,1.13-4.95,1.66-7.38,2.73-1.88,.83-3.48,2.02-5.48,2.6-8.87,2.59-16.98,7.17-26,9.4-2.82,.7-5.22,1.45-7.96,.23-2.38-1.06-4.33-2.53-6.47-3.97-5.3-3.55-10.68-6.97-16.64-9.35-8.36-3.34-16.57-7.22-25.27-9.63-6.93-1.92-13.57-6.14-19.97-9.37-7.45-3.76-13.73-9.51-20.81-13.8-3.14-1.91-6.54-3.98-9.89-5.51-3.53-1.61-6.62-3.63-10.01-5.47-4.83-2.63-10.05-5.04-15.03-7.39-4.01-1.89-8.57-3.07-12.33-5.43-3.41-2.14-6.8-3.56-10.54-5.06-4.26-1.71-9.1-2.9-13.14-5.05-5.05-2.69-9.4-3.79-15.07-3.67-2.1,.04-4.42,.38-6.42,1.09-1.36,.48-2.46,1.23-3.87,1.66-1.66,.5-2.84,.86-4.43,1.63-6.41,3.11-13.15,5.48-19.58,8.61-4.15,2.02-8.09,4.42-12.07,6.72-3.38,1.96-7.2,3.01-10.54,5.05-6.17,3.76-12.22,7.4-18.78,10.58-6.38,3.08-12.79,6.1-19.21,9.14-10.79,5.11-20.82,11.07-31.49,16.3-4.38,2.15-8.32,5.63-12.81,7.31-2.73,1.02-7.15,1.13-10.31,.72-3.59-.47-7.53-2.19-10.99-3.92-1.8-.9-3.79-1.67-5.5-2.73-1.55-.95-2.68-2.28-4.59-2.59-4.21-.68-8.83,1.03-12.64,2.57-4.93,2-9.39,4.83-13.86,7.49-3.28,1.95-6.45,3.49-9.98,4.89-2.15,.85-3.79,2.27-5.91,3.18-3.91,1.68-7.66,4.07-11.72,5.55-4.27,1.56-8.54,2.8-12.89,4.1-1.73,.52-3.54,1.11-5.45,.74-1.96-.39-2.79-2.01-4.57-2.61-1.27-.43-2.43,.08-3.69-.14-1.02-.17-1.73-.85-2.75-1.02-.97-.16-1.75,.1-2.75-.15-1.09-.28-1.57-.68-2.75-.73-2.13-.1-3.44-.53-5.46-.95-1.18-.25-2.48,.08-3.72-.15-1.11-.21-1.99-.7-3.2-.75-12.31-.52-23.29-4.21-34.15-10.01-1.89-1.01-3.28-2.68-5.07-3.76-1.16-.7-2.46-1.08-3.64-1.74-2.78-1.54-5.14-3.75-7.85-5.34-1.56-.92-3.17-1.79-4.78-2.64v126.32c12.68-.36,25.65,.65,38.26,1.68,16.76,1.36,33.3,3.82,50.12,4.5,12.04,.48,24.02,.65,36.03,1.61,10.25,.82,20.48,1.88,30.75,2.51,22.92,1.4,45.88,3.04,68.82,3.84,26.81,.93,53.71,1.03,80.54,1.27,32.94,.3,65.9,.77,98.8,2.75,27.05,1.62,53.98,4.55,80.86,7.97,24.11,3.06,48.16,6.15,72.5,6.17,27.08,.03,53.99-1.81,80.89-4.87,30.44-3.47,60.65-8.99,90.83-14.24,7.2-1.25,14.4-2.55,21.6-3.9V76.04Z"/>
      <g>
        <path class="cls-4" d="M322.53,13.75c2.2-1.88,3.79-4.4,5.93-6.43,2.71-2.56,6.39-4.84,10.23-6.35-2.63-.72-5.32-1.03-8.4-.96-2.1,.04-4.42,.38-6.42,1.09-1.36,.48-2.46,1.23-3.87,1.66-1.66,.5-2.84,.86-4.43,1.63-6.41,3.11-13.15,5.48-19.58,8.61-4.15,2.02-8.09,4.42-12.07,6.72-3.38,1.96-7.2,3.01-10.54,5.05-6.17,3.76-12.22,7.4-18.78,10.58-6.38,3.08-12.79,6.1-19.21,9.14-10.79,5.11-20.82,11.07-31.49,16.3-4.38,2.15-8.32,5.63-12.81,7.31-.8,.3-1.76,.51-2.77,.66,.22,.02,.46,.03,.74,.03,2.61-.05,4.11,.8,6.42,1.38,3.44,.85,5.14-.32,8.44-1.6,4-1.56,7.92-3.21,11.86-4.85,2.75-1.14,5.42-1.1,8.13-2.49,6.72-3.44,13.34-10.33,21.1-10.8,1.3-.08,2.78,.31,4.03-.05,1.25-.36,2.96-1.42,4.21-1.95,2.09-.88,3.46-2.55,5.48-3.53,1.34-.65,2.72-.85,4.1-1.37,2.06-.78,3.83-2.14,5.86-3.01,2.46-1.06,5.38-1.21,7.54-2.86,1.33-1.02,2.36-2.47,3.69-3.53,2.91-2.31,5.43-4.34,8.67-6.14,7.64-4.27,16.51-4.91,24.51-8.46,3.56-1.58,6.51-3.25,9.46-5.76Z"/>
        <path class="cls-4" d="M147.06,62.15c-4.93,2-9.39,4.83-13.86,7.49-3.28,1.95-6.45,3.49-9.98,4.89-2.15,.85-3.79,2.27-5.91,3.18-3.91,1.68-7.66,4.07-11.72,5.55-3.97,1.45-7.95,2.63-11.99,3.83,1.19-.21,2.32-.54,2.8-.67,1.55-.41,3.14,.17,4.65-.16,1.65-.35,3.38-.97,5.01-1.41,2.13-.58,3.89-1.89,5.91-2.35,2.77-.63,6.17-.03,8.8-1.29,1.21-.58,1.89-1.14,3.15-1.64,1.23-.48,2.48-.82,3.69-1.35,3.1-1.36,5.26-2.1,7.56-4.61,1.46-1.59,2.85-2.85,4.73-3.91,1.76-.99,4.23-1.77,5.85-2.95,1.88-1.37,2.87-3.96,4.79-5.14,1.81-1.11,4.17-1.66,6.22-2.15-3.34,.22-6.75,1.49-9.68,2.68Z"/>
        <path class="cls-4" d="M560.51,72.42c2.94-2.57,5.86-5.06,9.54-6.38,.15-.05,.3-.1,.46-.15-.57-.27-1.15-.53-1.75-.75-2.76-1.03-3.89-.83-6.6,0-3.31,1.02-6.68,2.16-9.86,3.64-2.44,1.13-4.95,1.66-7.38,2.73-1.88,.83-3.48,2.02-5.48,2.6-8.87,2.59-16.98,7.17-26,9.4-1.08,.27-2.09,.54-3.09,.71,1.78,1.83,2.64,2.68,5.92,2.98,6.38,.59,12.27-2.33,18.15-4.42,1.15-.41,2.79-1.14,4.03-1.22,1.57-.1,3.16,.94,4.74,1.05,2.94,.2,4.93-1.15,7.24-2.8,2.06-1.47,4.33-2.55,6.46-3.92,1.62-1.04,2.18-2.2,3.63-3.46Z"/>
        <path class="cls-4" d="M654.94,67.14c2.18-1,5.05-.74,7.36-1.28,7.3-1.71,10.61-6.05,14.9-11.48,1.49-1.88,3.1-3.61,4.85-5.22-1-.45-1.99-.9-2.97-1.3-.82,1.3-1.85,.47-3.06,.71-.69,.14-1.23,.71-1.92,.97-3.73,1.39-7.98,2.34-11.84,3.44-4.04,1.15-7.91,2.83-11.91,4.13-4.54,1.47-8.37,3.99-12.79,5.45-2.95,.98-5.6,3.23-8.55,4.43-1.95,.79-3.86,1.74-5.71,2.73-3.77,2.02-7.4,3.96-11.39,5.5-4.91,1.89-10.54,3.66-15.97,2.9,.75,.22,1.48,.49,2.18,.98,1.22,.85,1.89,2.6,2.87,3.5,2.35,2.16,9.37,.02,11.99-.87,6.14-2.07,11.88-5.85,18.07-7.4,6.36-1.6,12.95-1.97,19.14-4.39,1.82-.71,3.04-2.03,4.73-2.8Z"/>
      </g>
    </g>
    <path class="cls-3" d="M62.07,186.34c2.56-1.14,5.24-2.17,7.81-3.25,2.52-1.05,5.99-1.6,8.74-2.04,3.98-.64,7.96-1.09,11.96-1.64,7.28-1,12.67-5.66,19.36-7.81,3.7-1.19,7.28-2.8,10.75-4,.66,.86,1.47,.31,2.43,.47,.55,.09,.97,.47,1.52,.65,2.96,.93,6.34,1.56,9.4,2.29,3.21,.76,6.29,1.88,9.46,2.74,3.6,.98,6.65,2.65,10.16,3.63,2.35,.65,4.45,2.15,6.79,2.94,1.55,.53,3.06,1.15,4.54,1.82,2.99,1.34,5.88,2.64,9.05,3.66,4.03,1.3,8.67,2.51,13.11,1.88,2.54-.37,5.04-2.05,7.35-2.96,2.37-.94,4.89-1.7,7.23-2.71,2.23-.96,4.25-2.17,6.6-2.91,2.2-.68,3.09-.55,5.24,0,2.63,.68,5.3,1.43,7.83,2.42,1.94,.75,3.93,1.1,5.87,1.81,1.49,.55,2.77,1.34,4.35,1.73,7.05,1.72,13.49,4.77,20.66,6.25,2.24,.46,4.15,.96,6.32,.15,1.89-.71,3.44-1.68,5.14-2.64,4.21-2.36,8.49-4.63,13.22-6.22,6.64-2.22,13.16-4.8,20.08-6.41,5.51-1.28,10.78-4.08,15.87-6.23,5.92-2.5,10.91-6.32,16.54-9.18,2.5-1.27,5.2-2.65,7.86-3.66,2.81-1.07,5.26-2.41,7.95-3.64,3.84-1.75,7.98-3.35,11.94-4.91,3.18-1.25,6.81-2.04,9.8-3.61,2.71-1.42,5.4-2.37,8.38-3.37,3.39-1.13,7.23-1.93,10.44-3.35,4.01-1.79,7.47-2.52,11.97-2.44,1.67,.03,3.52,.25,5.1,.73,1.08,.32,1.95,.82,3.07,1.1,1.32,.33,2.26,.57,3.52,1.09,5.09,2.07,10.45,3.64,15.55,5.73,3.3,1.34,6.43,2.94,9.59,4.47,2.69,1.3,5.72,2,8.37,3.35,4.9,2.5,9.71,4.92,14.92,7.03,5.07,2.05,10.16,4.06,15.26,6.08,8.58,3.4,16.54,7.36,25.02,10.84,3.48,1.43,6.61,3.74,10.18,4.86,2.17,.68,5.68,.75,8.19,.48,2.85-.31,5.98-1.46,8.73-2.6,1.43-.6,3.01-1.11,4.37-1.81,1.23-.63,2.13-1.52,3.64-1.72,3.35-.45,7.02,.68,10.04,1.71,3.92,1.33,7.46,3.21,11.01,4.98,2.61,1.29,5.12,2.32,7.93,3.25,1.71,.56,3.02,1.51,4.7,2.12,3.1,1.12,6.09,2.71,9.31,3.69,3.39,1.03,6.78,1.86,10.24,2.72,1.38,.34,2.81,.74,4.33,.49,1.56-.26,2.21-1.34,3.63-1.74,1.01-.28,1.93,.05,2.93-.09,.81-.12,1.37-.56,2.19-.67,.77-.1,1.39,.07,2.19-.1,.87-.18,1.24-.45,2.19-.49,1.69-.07,2.73-.35,4.33-.63,.94-.16,1.97,.05,2.96-.1,.88-.14,1.58-.46,2.54-.5,9.78-.35,18.5-2.8,27.13-6.65,1.5-.67,2.6-1.78,4.03-2.5,.92-.47,1.95-.72,2.9-1.16,2.21-1.03,4.08-2.49,6.23-3.55,1.24-.61,2.51-1.19,3.8-1.76v83.98c-10.08-.24-20.38,.43-30.39,1.12-13.31,.91-26.45,2.54-39.82,2.99-9.57,.32-19.08,.43-28.63,1.07-8.15,.54-16.27,1.25-24.43,1.67-18.21,.93-36.45,2.02-54.68,2.55-21.3,.62-42.67,.68-63.99,.85-26.17,.2-52.36,.51-78.5,1.83-21.49,1.08-42.89,3.03-64.24,5.3-19.15,2.03-38.26,4.09-57.6,4.1-21.51,.02-42.89-1.2-64.27-3.24-24.18-2.31-48.19-5.98-72.16-9.47-5.72-.83-11.44-1.69-17.16-2.59v-78.23Z"/>
    <g>
      <path class="cls-2" d="M750,140.25c-2.89-1.43-5.79-2.84-8.72-4.17-6.55-2.97-12.32-5.61-19.48-6.86-5.52-.97-10.59-3.25-16.02-4.61-2.91-.73-5.86-1.45-8.68-2.09-3.47-.78-6.86,1.93-9.87,3.29-4.17,1.88-8.12,4.29-12.33,6.14-3.82,1.68-6.83,3.95-10.47,5.9-2.83,1.52-5.66,2.63-8.36,4.42-5.73,3.8-12.32,6.26-18.31,9.58-13.13,7.27-26.17,14.78-39.41,21.89-6.3,3.38-12.41,7.15-18.86,10.27-6.12,2.96-12.9,5.58-18.67,9.16-6.12,3.8-12.24,7.21-18.96,9.88-5.38,2.14-10.74,4.85-16.29,6.44-8.39,2.41-17.26,7.63-26.15,4.57-3.44-1.19-7.33-1.72-10.58-3.32-2.71-1.33-5.41-2.56-8.17-3.8-5.92-2.66-12.26-3.85-18.37-5.96-4.3-1.49-9.09-2.76-12.98-5.28-1.71-1.11-2.32-2.55-4.2-3.46-1.69-.82-3.58-1.73-5.32-2.41-4.27-1.68-8.2-4.01-12.47-5.7-3.66-1.45-7.45-2.39-11.14-3.79-3.07-1.16-6.18-2.53-9.32-3.47-2.25-.67-4.6-.41-6.96-.43-5.85-.04-11.44,2.68-16.96,4.55-4.37,1.48-8.68,3.62-12.86,5.57-2.45,1.14-5.08,1.85-7.56,2.91-2.48,1.06-4.56,2.83-6.98,3.98-10.4,4.92-20.96,9.11-31.59,13.51-2.44,1.01-4.67,2.3-7.03,3.44-1.95,.94-4.17,1.25-6.19,2.02-3.07,1.16-6.1,2.57-9.18,3.49-2.79,.83-5.6,1.22-8.08,0-2-.99-3.74-2.24-6.01-2.89-6.36-1.82-12.15-4.91-18.43-6.97-3.69-1.22-7.4-2.04-11.05-3.18-2.77-.87-5.58-2.62-8.3-3.71-5.14-2.06-10.95-4.25-15.34-7.66-2.75-2.14-5.07-3.51-8.29-4.95-1.06-.48-2.07-1.32-3.18-1.65-1.1-.33-2.12,0-3.21-.15-.84-.11-1.53-.64-2.3-.78-.75-.13-1.15,.37-1.79,.31-1.59-.15-3.04-.51-4.66-.5-2.64,.02-4.84,.12-7.3-.68-2.71-.88-5.35-1.75-8.03-2.75-3.27-1.22-5.63-3.19-8.73-4.61-3.51-1.61-6.91-3.44-10.04-5.73-1.77-1.29-3.64-1.67-5.53-2.68-1.67-.89-3.01-2.08-4.78-2.81-8.56-3.54-17.3-7.15-26.2-9.85-4.34-1.32-8.6-2.9-12.81-4.59-3.54-1.42-7.16-3.6-10.81-4.63-3.46-.98-6.87-1.17-10.29-2.25-2.3-.72-4.52-2.24-6.88-2.55-2.42-.32-5.07,.79-7.34,1.4-2.37,.64-4.49,1.85-6.86,2.53-6.69,1.94-13.83,3.88-20.41,6.37-4.92,1.86-9.75,3.89-14.47,6.24-2.13,1.06-4.23,2.23-6.39,3.24-2.39,1.12-4.93,1.27-7.37,2.21-3.2,1.24-6.22,2.94-9.42,4.17-3.02,1.17-6.09,1.69-8.97,3.21-5.23,2.77-10.89,4.44-16.09,7.3-.74,.41-1.47,.82-2.21,1.23v173.53c7.83,.32,15.67,.43,23.52,.34,39.05-.48,77.74-6.46,116.77-6.95,21.55-.27,43.03,3.1,64.43,5.04,18.56,1.68,37.18,2.74,55.7,4.85,26.58,3.03,53.55,6.76,80.33,7.26,25.03,.46,49.91-1.1,74.84-3.15,23.48-1.93,46.96-3.7,70.4-6.1,31.58-3.23,63.1-7.4,94.63-11.12,28.97-3.42,57.93-7.21,86.69-12.11,27.6-4.7,55.06-10.19,82.7-14.68V140.25Z"/>
      <g>
        <path class="cls-5" d="M693.61,135.02c3.35-3.66,6.51-7.39,9.95-10.95-2.18-.54-4.36-1.06-6.47-1.54-3.47-.78-6.86,1.93-9.87,3.29-4.17,1.88-8.12,4.29-12.33,6.14-3.82,1.68-6.83,3.95-10.47,5.9-2.83,1.52-5.66,2.63-8.36,4.42-5.73,3.8-12.32,6.26-18.31,9.58-13.13,7.27-26.17,14.78-39.41,21.89-6.3,3.38-12.41,7.15-18.86,10.27-6.12,2.96-12.9,5.58-18.67,9.16-6.12,3.8-12.24,7.21-18.96,9.88-5.38,2.14-10.74,4.85-16.29,6.44-4.45,1.28-9.03,3.33-13.67,4.54,.39,.13,.83,.69,1.03,.74,1.73,.37,3.58-.17,5.3,.16,1.69,.32,3.07,1.6,4.52,2.46,3.18,1.87,5.07,.45,8.26-.99,6.12-2.76,11.38-7.12,17.24-9.9,11.12-5.26,25.3-3.75,33.58-14.52,8.6-11.18,23.5-9.08,35.22-13.65,4.33-1.69,7.07-4.81,10.74-7.56,4.66-3.5,8.98-7.52,13.86-10.72,5.66-3.71,11.87-5.92,18.29-7.9,7.95-2.46,15.21-6.13,22.82-9.45,4.43-1.94,7.58-4.1,10.86-7.68Z"/>
        <path class="cls-5" d="M263.92,209.47c1.21,0,2.5-.11,3.71-.02,1.01,.07,1.48,.55,2.22,.73,1.67,.41,2.92,.01,4.39-.92,.4-.25,.8-.52,1.19-.78-2.11-.87-4.23-1.71-6.41-2.43-3.69-1.22-7.4-2.04-11.05-3.18-2.77-.87-5.58-2.62-8.3-3.71-5.14-2.06-10.95-4.25-15.34-7.66-2.75-2.14-5.07-3.51-8.29-4.95-1.06-.48-2.07-1.32-3.18-1.65-1.1-.33-2.12,0-3.21-.15-.84-.11-1.53-.64-2.3-.78-.75-.13-1.15,.37-1.79,.31-1.59-.15-3.04-.51-4.66-.5-2.64,.02-4.84,.12-7.3-.68-.89-.29-1.77-.58-2.65-.88,.2,.84,.24,1.85,.8,2.51,.72,.85,1.63,1.27,2.73,2.02,1.81,1.24,2.34,1.68,4.63,1.63,2.02-.05,3.14,.13,4.79,.7,3.46,1.18,6.31,1.85,7.6,5.69,.93,2.76,1.14,4.5,3.2,6.43,.63,.59,1,1.29,1.58,1.89,1.21,1.24,2.44,1.82,3.94,2.72,1.93,1.16,2.87,1.8,5.27,1.86,1.59,.04,3.18-.04,4.77-.02,2.37,.03,4.3-.3,6.5-1.16,2.03-.79,2.39-.7,3.83,.91,2.85,3.19,3.97,3.35,8.02,2.29,1.66-.43,3.56-.2,5.28-.2Z"/>
        <path class="cls-5" d="M6.39,188.4c3.58-2.59,7.88-4.63,11.94-6.67,6.34-3.18,11.23-8.36,17.2-11.9,3.13-1.86,5.97-2.9,9.6-3.52,1.92-.33,3.4-.03,5.3-.85,1.94-.84,3.81-2.25,5.48-3.64,2.64-2.2,5.17-4.8,8.02-6.72,2.85-1.92,6.25-2.42,9.47-3.39,1.48-.44,3.04-1.46,4.54-2.12,1.51-.66,2.98-.91,4.38-1.81,3.39-2.17,6.42-2.53,10.29-3.46,2.82-.68,6.1-1.32,8.4-3.31-.5-.16-1.01-.29-1.52-.36-2.42-.32-5.07,.79-7.34,1.4-2.37,.64-4.49,1.85-6.86,2.53-6.69,1.94-13.83,3.88-20.41,6.37-4.92,1.86-9.75,3.89-14.47,6.24-2.13,1.06-4.23,2.23-6.39,3.24-2.39,1.12-4.93,1.27-7.37,2.21-3.2,1.24-6.22,2.94-9.42,4.17-3.02,1.17-6.09,1.69-8.97,3.21-5.23,2.77-10.89,4.44-16.09,7.3-.74,.41-1.47,.82-2.21,1.23v12.75c2.27-.58,4.45-1.52,6.39-2.92Z"/>
        <path class="cls-5" d="M353.28,203.24c3.42,.66,6.47,2.18,9.95,1.05,3.1-1.01,5.68-3.19,8.24-5.13,2.59-1.96,5.49-4.74,8.37-6.16,2.21-1.09,4.61-.87,6.85-1.84,4.15-1.8,7.77-4.92,11.39-7.57,2.7-1.98,5.05-4.61,7.57-6.98-1.87-.31-3.8-.14-5.74-.16-5.85-.04-11.44,2.68-16.96,4.55-4.37,1.48-8.68,3.62-12.86,5.57-2.45,1.14-5.08,1.85-7.56,2.91-2.48,1.06-4.56,2.83-6.98,3.98-10.4,4.92-20.96,9.11-31.59,13.51-2.44,1.01-4.67,2.3-7.03,3.44-1.95,.94-4.17,1.25-6.19,2.02-3.07,1.16-6.1,2.57-9.18,3.49-1.06,.32-2.13,.57-3.18,.69,.16,.27,.34,.52,.59,.71,3.06,2.28,11.85-1.69,14.78-3.02,.75-.34,1.33-.94,2.15-1.01,.62-.05,.71,.68,1.41,.82,2.13,.44,4.44-.45,6.47-.97,5.16-1.32,10-3.21,14.85-5.25,5.19-2.18,8.71-5.8,14.65-4.65Z"/>
      </g>
    </g>
  </g>
</svg>