<?xml version="1.0" encoding="UTF-8"?>
<svg id="Layer_2" data-name="Layer 2" xmlns="http://www.w3.org/2000/svg" viewBox="0 0 705.74 158">
  <defs>
    <style>
      .cls-1 {
        fill: #214d4d;
      }

      .cls-2 {
        fill: #1b3c3e;
      }
    </style>
  </defs>
  <g id="OBJECTS">
    <path class="cls-1" d="M705.74,158V16.07c-2.59-.34-5.17-.68-7.76-1.04-7.24-1-14.62-.59-21.88-1.79-5.8-.96-12.16-3.11-17.66-5.33-4.15-1.68-7.55-5.39-11.71-6.71-9.58-3.04-20.64,.41-30.31,2.14-6.25,1.12-11.66,4.22-17.84,5.57-6.54,1.42-12.21,4.06-18.6,5.88-10.6,3.03-20.63,6.52-30.9,10.59-4.08,1.62-8.49,2.44-12.41,4.39-2.39,1.19-4.31,2.85-6.85,3.89-2.04,.84-4.24,1.32-6.3,2.2-4.96,2.13-10.75,7.79-15.76,4.68-5.16-3.2-10.9-4.99-16.85-6.57-4.03-1.07-8.11-2.29-12.04-3.75-3.16-1.17-6.1-3.18-9.31-4.19-1.59-.5-2.47-.54-3.83-1.3-.51-.29-.71-1.18-1.23-1.49-.86-.51-4.24-1.4-5.16-1.41-2.2,0-6.08,2.12-8.33,2.85-2.7,.87-4.84,.63-7.57,1.16-4.57,.89-8.67,1.9-13.07,2.94-2.68,.63-5.56,1.72-8.18,2.41-2.8,.73-5.57,1.4-8.25,2.41-7.08,2.69-14.18,5.12-21.35,7.53-4.72,1.58-9.76,4.31-14.18,6.64-2.74,1.45-5.72,2.19-8.46,3.68-6.84,3.73-14.77,6.39-21.21,10.69-5.81,3.88-13.42,6.93-19.87,10.05-4.41,2.13-9.33,4.32-14.06,5.5-9.18,2.29-18.8-2.09-26.45-6.19-2.55-1.37-3.78-2.8-6.54-3.16-2.7-.35-4.5,.49-6.91,1.1-4.97,1.27-10.18,1.54-15.13,2.76-5.12,1.26-10.03,1.81-15.13,3.4-2.27,.7-4.53,2.08-6.88,2.48-2.06,.35-4.78-.07-6.88-.07-5.3,0-10.11-.22-15.13-1.65-4.73-1.34-8.42-5.18-12.96-6.78-10.87-3.83-23.07,1.2-33.83,4.6-11.63,3.67-22.72,8.92-34.05,13.45-12.74,5.1-25.27,10.55-37.8,16.13-9.37,4.18-18.66,8.75-28.24,12.45-7.19,2.78-14.79,6.89-22.38,8.29-6.21,1.14-11.79,3.24-17.81,5.1-2.39,.74-5.24,3.01-7.76,1.85L2.37,158H705.74Z"/>
    <path class="cls-2" d="M703.36,158v-22.68c-18.09-5.79-36.58-9.47-55.07-13.76-7.39-1.71-14.63-3.14-22.08-4.52-5.8-1.08-11.74-2.61-16.94-5.52-6.37-3.57-11.75-11.9-11.12-19.37,.61-7.31,6.09-13.46,6.42-20.7,.19-4.15-2.58-6.27-5.81-8.35-1.27-.82-2.93-1.5-3.41-3.14-.93-3.12,2.11-6.4,3.51-8.81,.93-1.61,1.6-3.31,2.6-4.87,3.74-5.81,10.12-10.45,15.22-15,5.5-4.9,10.71-10.09,16.28-14.93,4.9-4.27,9.41-8.82,14.07-13.36,.13-.13,.26-.25,.38-.37-.99-.58-2.01-1.08-3.08-1.42-9.58-3.04-20.64,.41-30.31,2.14-6.25,1.12-11.66,4.22-17.84,5.57-6.54,1.42-12.21,4.06-18.6,5.88-10.6,3.03-20.63,6.52-30.9,10.59-4.08,1.62-8.49,2.44-12.41,4.39-2.39,1.19-4.31,2.85-6.85,3.89-2.04,.84-4.24,1.32-6.3,2.2-.27,.11-.54,.24-.81,.38-3.01,2.7-6.18,5.2-9.49,7.31-6.64,4.25-13.42,8.23-20.03,12.54-7.64,4.99-13.84,11.67-21.94,15.89-5.01,2.61-9.75,5.7-14.74,8.33-5.96,3.14-11.97,5.94-16.97,10.56-6.69,6.18-12.71,13.07-19.31,19.34-4.29,4.08-9.25,7.15-14.16,10.43-9.39,6.27-18.73,12.83-28.51,18.47-5.31,3.06-8.75,.68-14.21-.05-.83-.11-4.39,.2-3.93-1.68,.23-.93,2.21-1.38,2.84-1.79,1.09-.72,2.08-1.85,2.75-2.98,1.42-2.39,2.86-4.05,4.86-6.04,2.46-2.44,5.69-5.17,7.61-8.03,.9-1.34,1.1-2.75,1.06-4.32-.04-1.8,.64-2.19,.97-3.62,.49-2.14,.39-3.7,1.55-5.8,.79-1.42,1.38-2.87,2.05-4.29,3.32-6.97,12.59-9.95,18.86-13.8,3.95-2.42,7.58-4.6,10.71-7.98,3.07-3.32,5.7-7.3,8.95-10.42,1.15-1.1,2.56-1.93,3.69-3.06,2.06-2.07,3.78-4.89,5.53-7.23,2.92-3.93,5.69-7.67,8.9-11.37,4.15-4.79,7.8-9.88,12.17-14.52,3.09-3.28,6.22-6.54,9.07-10.03-.71-.16-1.34-.28-1.66-.28-2.2,0-6.08,2.12-8.33,2.85-2.7,.87-4.84,.63-7.57,1.16-4.57,.89-8.67,1.9-13.07,2.94-2.68,.63-5.56,1.72-8.18,2.41-2.8,.73-5.57,1.4-8.25,2.41-7.08,2.69-14.18,5.12-21.35,7.53-4.72,1.58-9.76,4.31-14.18,6.64-2.74,1.45-5.72,2.19-8.46,3.68-6.84,3.73-14.77,6.39-21.21,10.69-5.81,3.88-13.42,6.93-19.87,10.05-4.41,2.13-9.33,4.32-14.06,5.5-.66,.16-1.32,.29-1.99,.38-2.19,2.26-4.51,4.39-6.89,6.51-6.83,6.07-13.59,12.23-20.05,18.68-3.64,3.64-6.79,7.72-10.05,11.7-2.13,2.59-9.04,8.89-12.88,6.87-1.52-.8-1.28-2.45-2.43-3.31-1.38-1.05-2.01,.15-3.21,.96-4.53,3.1-9.18,5.56-13.8,8.48-4.09,2.58-8.33,5.16-12.39,7.57-1.45,.86-2.33,1.48-4.05,1.86-1.41,.31-3.17,.31-4.49,.66-.89,.23-1.63,.98-2.57,.83-.8-1.63,2.02-3.23,2.86-4.45,.53-.77,1.4-1.75,1.86-2.52,.57-.96,.23-1.08,.64-2.11,.64-1.59,1.6-3.57,2.71-4.79,1.53-1.69,3.97-2.69,5.6-4.33,3.3-3.33,5.39-7.48,8.41-11,1.34-1.56,3.49-2.62,4.65-4.36,.96-1.44,1.02-3.22,1.56-4.81,1.83-5.37,7.54-9.41,11.95-12.66,4.11-3.03,9.08-6.27,12.13-10.27,1.51-1.99,3.24-4.02,5.3-5.27,1.72-1.04,3.26-2.51,4.79-3.84-.21-.04-.41-.09-.63-.12-2.7-.35-4.5,.49-6.91,1.1-4.97,1.27-10.18,1.54-15.13,2.76-5.12,1.26-10.03,1.81-15.13,3.4-2.27,.7-4.53,2.08-6.88,2.48-.1,.02-.2,.02-.3,.04-2.72,1.49-5.2,2.99-8.42,3.82-1.54,.39-3.04,.03-4.59,.41-1.82,.45-3.04,1.38-4.59,2.34-6.22,3.86-13.23,5.61-19.26,9.55-7.71,5.04-14,11.67-21.3,17.27-1.61,1.23-3.46,1.6-5.09,2.68-.88,.58-1.24,1.31-2.01,1.91-2.07,1.61-4.82,3.17-7.16,4.38-2.86,1.48-7.01,3.83-10.31,2.75-1.34-.44-3-2.39-3.46-3.69-.64-1.79,.11-2.56,.62-4,.95-2.67,2.78-4.66,4.65-6.8,2.34-2.69,5.46-5.03,8.32-7.11,2.79-2.03,5.32-4.74,8.21-6.65,6.05-3.99,8.84-10.6,13.76-15.61,1.16-1.18,1.6-1.24,2.97-2.02,1.41-.8,2.23-1.65,3.49-2.6,1.71-1.29,3.74-1.83,5.53-2.93,1.41-.87,2.84-1.52,4.3-2.1-.11-.04-.22-.09-.34-.13-10.87-3.83-23.07,1.2-33.83,4.6-11.63,3.67-22.72,8.92-34.05,13.45-12.74,5.1-25.27,10.55-37.8,16.13-9.37,4.18-18.66,8.75-28.24,12.45-7.19,2.78-14.79,6.89-22.38,8.29-6.21,1.14-11.79,3.24-17.81,5.1-2.39,.74-5.24,3.01-7.76,1.85L0,158H703.36Z"/>
  </g>
</svg>