<?xml version="1.0" encoding="UTF-8"?>
<svg id="Layer_2" data-name="Layer 2" xmlns="http://www.w3.org/2000/svg" viewBox="0 0 477.53 158">
  <defs>
    <style>
      .cls-1 {
        fill: #214d4d;
      }

      .cls-2 {
        fill: #1b3c3e;
      }
    </style>
  </defs>
  <g id="OBJECTS">
    <path class="cls-1" d="M0,158V16.07c1.75-.34,3.5-.68,5.25-1.04,4.9-1,9.89-.59,14.81-1.79,3.92-.96,8.23-3.11,11.95-5.33,2.81-1.68,5.11-5.39,7.93-6.71,6.48-3.04,13.97,.41,20.51,2.14,4.23,1.12,7.89,4.22,12.07,5.57,4.43,1.42,8.26,4.06,12.59,5.88,7.17,3.03,13.96,6.52,20.91,10.59,2.76,1.62,5.75,2.44,8.39,4.39,1.62,1.19,2.92,2.85,4.63,3.89,1.38,.84,2.87,1.32,4.26,2.2,3.35,2.13,7.27,7.79,10.66,4.68,3.49-3.2,7.38-4.99,11.4-6.57,2.73-1.07,5.49-2.29,8.15-3.75,2.14-1.17,4.13-3.18,6.3-4.19,1.08-.5,1.67-.54,2.59-1.3,.34-.29,.48-1.18,.83-1.49,.58-.51,2.87-1.4,3.49-1.41,1.49,0,4.11,2.12,5.63,2.85,1.82,.87,3.28,.63,5.12,1.16,3.1,.89,5.87,1.9,8.85,2.94,1.81,.63,3.76,1.72,5.53,2.41,1.9,.73,3.77,1.4,5.58,2.41,4.79,2.69,9.6,5.12,14.45,7.53,3.19,1.58,6.61,4.31,9.6,6.64,1.85,1.45,3.87,2.19,5.72,3.68,4.63,3.73,9.99,6.39,14.35,10.69,3.93,3.88,9.08,6.93,13.44,10.05,2.99,2.13,6.31,4.32,9.52,5.5,6.21,2.29,12.72-2.09,17.89-6.19,1.73-1.37,2.56-2.8,4.43-3.16,1.83-.35,3.05,.49,4.68,1.1,3.37,1.27,6.89,1.54,10.24,2.76,3.46,1.26,6.79,1.81,10.24,3.4,1.54,.7,3.07,2.08,4.65,2.48,1.39,.35,3.23-.07,4.65-.07,3.59,0,6.84-.22,10.24-1.65,3.2-1.34,5.7-5.18,8.77-6.78,7.35-3.83,15.61,1.2,22.89,4.6,7.87,3.67,15.37,8.92,23.04,13.45,8.62,5.1,17.1,10.55,25.58,16.13,6.34,4.18,12.63,8.75,19.11,12.45,4.87,2.78,10.01,6.89,15.14,8.29,4.2,1.14,7.98,3.24,12.05,5.1,1.61,.74,3.55,3.01,5.25,1.85l12.57,26.54H0Z"/>
    <path class="cls-2" d="M1.61,158v-22.68c12.24-5.79,24.75-9.47,37.26-13.76,5-1.71,9.9-3.14,14.94-4.52,3.92-1.08,7.95-2.61,11.46-5.52,4.31-3.57,7.95-11.9,7.52-19.37-.41-7.31-4.12-13.46-4.35-20.7-.13-4.15,1.75-6.27,3.93-8.35,.86-.82,1.98-1.5,2.31-3.14,.63-3.12-1.43-6.4-2.38-8.81-.63-1.61-1.08-3.31-1.76-4.87-2.53-5.81-6.85-10.45-10.3-15-3.72-4.9-7.25-10.09-11.01-14.93-3.32-4.27-6.37-8.82-9.52-13.36-.09-.13-.17-.25-.26-.37,.67-.58,1.36-1.08,2.08-1.42,6.48-3.04,13.97,.41,20.51,2.14,4.23,1.12,7.89,4.22,12.07,5.57,4.43,1.42,8.26,4.06,12.59,5.88,7.17,3.03,13.96,6.52,20.91,10.59,2.76,1.62,5.75,2.44,8.39,4.39,1.62,1.19,2.92,2.85,4.63,3.89,1.38,.84,2.87,1.32,4.26,2.2,.18,.11,.36,.24,.55,.38,2.03,2.7,4.18,5.2,6.42,7.31,4.5,4.25,9.08,8.23,13.55,12.54,5.17,4.99,9.36,11.67,14.85,15.89,3.39,2.61,6.59,5.7,9.97,8.33,4.03,3.14,8.1,5.94,11.48,10.56,4.52,6.18,8.6,13.07,13.07,19.34,2.9,4.08,6.26,7.15,9.58,10.43,6.36,6.27,12.67,12.83,19.29,18.47,3.59,3.06,5.92,.68,9.62-.05,.56-.11,2.97,.2,2.66-1.68-.16-.94-1.5-1.38-1.92-1.79-.74-.72-1.41-1.85-1.86-2.98-.96-2.39-1.93-4.05-3.29-6.04-1.66-2.44-3.85-5.17-5.15-8.03-.61-1.34-.74-2.75-.72-4.32,.03-1.8-.43-2.19-.65-3.62-.33-2.14-.26-3.7-1.05-5.8-.54-1.42-.93-2.87-1.39-4.29-2.25-6.97-8.52-9.95-12.76-13.8-2.67-2.42-5.13-4.6-7.24-7.98-2.08-3.32-3.86-7.3-6.06-10.42-.78-1.1-1.74-1.93-2.5-3.06-1.4-2.07-2.56-4.89-3.74-7.23-1.97-3.93-3.85-7.67-6.02-11.37-2.81-4.79-5.28-9.88-8.24-14.52-2.09-3.28-4.21-6.54-6.14-10.03,.48-.16,.91-.28,1.13-.28,1.49,0,4.11,2.12,5.63,2.85,1.82,.87,3.28,.63,5.12,1.16,3.1,.89,5.87,1.9,8.85,2.94,1.81,.63,3.76,1.72,5.53,2.41,1.9,.73,3.77,1.4,5.58,2.41,4.79,2.69,9.6,5.12,14.45,7.53,3.19,1.58,6.61,4.31,9.6,6.64,1.85,1.45,3.87,2.19,5.72,3.68,4.63,3.73,9.99,6.39,14.35,10.69,3.93,3.88,9.08,6.93,13.44,10.05,2.99,2.13,6.31,4.32,9.52,5.5,.45,.16,.9,.29,1.34,.38,1.48,2.26,3.05,4.39,4.66,6.51,4.62,6.07,9.19,12.23,13.57,18.68,2.47,3.64,4.59,7.72,6.8,11.7,1.44,2.59,6.12,8.89,8.72,6.87,1.03-.8,.87-2.45,1.65-3.31,.94-1.05,1.36,.15,2.17,.96,3.07,3.1,6.21,5.56,9.34,8.48,2.77,2.58,5.64,5.16,8.38,7.57,.98,.86,1.58,1.48,2.74,1.86,.95,.31,2.14,.31,3.04,.66,.6,.23,1.1,.98,1.74,.83,.54-1.63-1.37-3.23-1.94-4.45-.36-.77-.94-1.75-1.26-2.52-.39-.96-.15-1.08-.43-2.11-.43-1.59-1.09-3.57-1.83-4.79-1.04-1.69-2.68-2.69-3.79-4.33-2.24-3.33-3.64-7.48-5.69-11-.9-1.56-2.36-2.62-3.15-4.36-.65-1.44-.69-3.22-1.06-4.81-1.24-5.37-5.1-9.41-8.08-12.66-2.78-3.03-6.14-6.27-8.21-10.27-1.02-1.99-2.19-4.02-3.59-5.27-1.16-1.04-2.21-2.51-3.24-3.84,.14-.04,.27-.09,.43-.12,1.83-.35,3.05,.49,4.68,1.1,3.37,1.27,6.89,1.54,10.24,2.76,3.46,1.26,6.79,1.81,10.24,3.4,1.54,.7,3.07,2.08,4.65,2.48,.06,.02,.13,.02,.2,.04,1.84,1.49,3.52,2.99,5.7,3.82,1.04,.39,2.06,.03,3.1,.41,1.23,.45,2.06,1.38,3.1,2.34,4.21,3.86,8.95,5.61,13.03,9.55,5.21,5.04,9.48,11.67,14.41,17.27,1.09,1.23,2.34,1.6,3.45,2.68,.59,.58,.84,1.31,1.36,1.91,1.4,1.61,3.26,3.17,4.84,4.38,1.93,1.48,4.74,3.83,6.98,2.75,.9-.44,2.03-2.39,2.34-3.69,.43-1.79-.08-2.56-.42-4-.64-2.67-1.88-4.66-3.15-6.8-1.58-2.69-3.69-5.03-5.63-7.11-1.89-2.03-3.6-4.74-5.55-6.65-4.09-3.99-5.98-10.6-9.31-15.61-.79-1.18-1.08-1.24-2.01-2.02-.95-.8-1.51-1.65-2.36-2.6-1.16-1.29-2.53-1.83-3.74-2.93-.95-.87-1.92-1.52-2.91-2.1,.08-.04,.15-.09,.23-.13,7.35-3.83,15.61,1.2,22.89,4.6,7.87,3.67,15.37,8.92,23.04,13.45,8.62,5.1,17.1,10.55,25.58,16.13,6.34,4.18,12.63,8.75,19.11,12.45,4.87,2.78,10.01,6.89,15.14,8.29,4.2,1.14,7.98,3.24,12.05,5.1,1.61,.74,3.55,3.01,5.25,1.85l12.57,26.54H1.61Z"/>
  </g>
</svg>